<svg width="454" height="184" viewBox="0 0 454 184" fill="none" xmlns="http://www.w3.org/2000/svg">
<path d="M89.224 43.776C92.68 43.776 95.432 44.896 97.48 47.136C99.528 49.312 100.552 52.32 100.552 56.16C100.552 57.568 100.488 58.656 100.36 59.424L95.176 96H83.08L87.976 61.536C88.104 60.256 88.168 59.392 88.168 58.944C88.168 57.024 87.784 55.712 87.016 55.008C86.312 54.24 85.288 53.856 83.944 53.856C80.296 53.856 76.36 58.048 72.136 66.432L67.912 96H55.816L60.712 61.536C60.84 60.256 60.904 59.392 60.904 58.944C60.904 57.024 60.52 55.712 59.752 55.008C59.048 54.24 58.024 53.856 56.68 53.856C53.032 53.856 49.096 58.176 44.872 66.816L40.84 96H28.744L35.848 45.216H46.312L45.832 54.144C50.568 47.232 55.976 43.776 62.056 43.776C65 43.776 67.464 44.64 69.448 46.368C71.496 48.096 72.744 50.528 73.192 53.664C75.368 50.528 77.832 48.096 80.584 46.368C83.336 44.64 86.216 43.776 89.224 43.776ZM124.923 97.44C118.395 97.44 113.339 95.552 109.755 91.776C106.235 88 104.475 82.752 104.475 76.032C104.475 71.04 105.371 66.08 107.163 61.152C109.019 56.224 111.995 52.096 116.091 48.768C120.187 45.44 125.435 43.776 131.835 43.776C138.363 43.776 143.387 45.696 146.907 49.536C150.491 53.312 152.283 58.496 152.283 65.088C152.283 70.08 151.387 75.04 149.595 79.968C147.803 84.896 144.859 89.056 140.763 92.448C136.667 95.776 131.387 97.44 124.923 97.44ZM125.595 88.128C129.115 88.128 131.931 86.816 134.043 84.192C136.155 81.504 137.627 78.304 138.459 74.592C139.291 70.88 139.707 67.264 139.707 63.744C139.707 56.64 136.859 53.088 131.163 53.088C127.643 53.088 124.827 54.4 122.715 57.024C120.603 59.584 119.099 62.688 118.203 66.336C117.371 69.984 116.955 73.536 116.955 76.992C116.955 84.416 119.835 88.128 125.595 88.128ZM189.548 43.776C193.196 43.776 196.044 44.896 198.092 47.136C200.204 49.312 201.26 52.352 201.26 56.256C201.26 57.28 201.164 58.432 200.972 59.712L195.884 96H183.788L188.684 61.536C188.812 60.384 188.876 59.584 188.876 59.136C188.876 57.216 188.492 55.872 187.724 55.104C186.956 54.272 185.9 53.856 184.556 53.856C180.204 53.856 175.756 58.208 171.212 66.912L167.084 96H154.988L162.092 45.216H172.556L172.076 54.624C177.068 47.392 182.892 43.776 189.548 43.776ZM225.667 97.44C219.139 97.44 214.083 95.552 210.499 91.776C206.979 88 205.219 82.752 205.219 76.032C205.219 71.04 206.115 66.08 207.907 61.152C209.763 56.224 212.739 52.096 216.835 48.768C220.931 45.44 226.179 43.776 232.579 43.776C239.107 43.776 244.131 45.696 247.651 49.536C251.235 53.312 253.027 58.496 253.027 65.088C253.027 70.08 252.131 75.04 250.339 79.968C248.547 84.896 245.603 89.056 241.507 92.448C237.411 95.776 232.131 97.44 225.667 97.44ZM226.339 88.128C229.859 88.128 232.675 86.816 234.787 84.192C236.899 81.504 238.371 78.304 239.203 74.592C240.035 70.88 240.451 67.264 240.451 63.744C240.451 56.64 237.603 53.088 231.907 53.088C228.387 53.088 225.571 54.4 223.459 57.024C221.347 59.584 219.843 62.688 218.947 66.336C218.115 69.984 217.699 73.536 217.699 76.992C217.699 84.416 220.579 88.128 226.339 88.128ZM277.62 43.776C284.532 43.776 290.452 45.92 295.38 50.208L289.812 57.024C285.972 54.272 281.908 52.896 277.62 52.896C274.996 52.896 272.948 53.376 271.476 54.336C270.068 55.296 269.364 56.608 269.364 58.272C269.364 59.808 270.036 61.024 271.38 61.92C272.724 62.752 275.38 63.808 279.348 65.088C284.02 66.56 287.476 68.512 289.716 70.944C291.956 73.312 293.076 76.448 293.076 80.352C293.076 83.744 292.148 86.752 290.292 89.376C288.5 91.936 285.94 93.92 282.612 95.328C279.284 96.736 275.412 97.44 270.996 97.44C266.772 97.44 262.932 96.704 259.476 95.232C256.084 93.76 253.268 91.872 251.028 89.568L257.364 82.944C261.46 86.464 266.1 88.224 271.284 88.224C274.484 88.224 276.852 87.584 278.388 86.304C279.988 84.96 280.788 83.424 280.788 81.696C280.788 80.352 280.468 79.264 279.828 78.432C279.252 77.536 278.26 76.768 276.852 76.128C275.444 75.424 273.3 74.592 270.42 73.632C265.748 72.16 262.356 70.304 260.244 68.064C258.196 65.76 257.172 62.816 257.172 59.232C257.172 56.544 257.94 54.016 259.476 51.648C261.076 49.28 263.412 47.392 266.484 45.984C269.556 44.512 273.268 43.776 277.62 43.776ZM330.11 43.776C333.886 43.776 336.83 44.896 338.942 47.136C341.054 49.312 342.11 52.352 342.11 56.256C342.11 57.664 342.046 58.752 341.918 59.52L336.734 96H324.638L329.534 61.536C329.662 60.256 329.726 59.424 329.726 59.04C329.726 57.12 329.342 55.776 328.574 55.008C327.87 54.24 326.878 53.856 325.598 53.856C321.118 53.856 316.542 58.208 311.87 66.912L307.934 96H295.838L305.822 24.96L318.014 23.712L313.694 54.144C315.742 50.944 318.174 48.416 320.99 46.56C323.806 44.704 326.846 43.776 330.11 43.776ZM366.611 97.44C360.083 97.44 355.027 95.552 351.443 91.776C347.923 88 346.163 82.752 346.163 76.032C346.163 71.04 347.059 66.08 348.851 61.152C350.707 56.224 353.683 52.096 357.779 48.768C361.875 45.44 367.123 43.776 373.523 43.776C380.051 43.776 385.075 45.696 388.595 49.536C392.179 53.312 393.971 58.496 393.971 65.088C393.971 70.08 393.075 75.04 391.283 79.968C389.491 84.896 386.547 89.056 382.451 92.448C378.355 95.776 373.075 97.44 366.611 97.44ZM367.283 88.128C370.803 88.128 373.619 86.816 375.731 84.192C377.843 81.504 379.315 78.304 380.147 74.592C380.979 70.88 381.395 67.264 381.395 63.744C381.395 56.64 378.547 53.088 372.851 53.088C369.331 53.088 366.515 54.4 364.403 57.024C362.291 59.584 360.787 62.688 359.891 66.336C359.059 69.984 358.643 73.536 358.643 76.992C358.643 84.416 361.523 88.128 367.283 88.128ZM411.843 80.736C411.715 82.016 411.651 82.816 411.651 83.136C411.651 84.672 411.971 85.792 412.611 86.496C413.251 87.136 414.275 87.456 415.683 87.456C417.475 87.456 419.651 86.848 422.211 85.632L425.667 93.792C421.763 96.224 417.507 97.44 412.899 97.44C408.611 97.44 405.283 96.32 402.915 94.08C400.611 91.776 399.459 88.544 399.459 84.384C399.459 83.232 399.555 81.984 399.747 80.64L403.491 54.048H395.619L396.867 45.216H405.219L408.387 33.696L418.563 32.544L416.835 45.216H428.547L425.955 54.048H415.587L411.843 80.736Z" fill="black"/>
<path d="M107.145 146.246C106.406 146.246 105.914 145.74 105.914 144.975V127.543C105.914 126.764 106.393 126.271 107.145 126.271H113.311C117.111 126.271 119.6 128.596 119.6 132.15C119.6 134.898 118.109 137.031 115.635 137.811L119.244 144.25C119.436 144.592 119.504 144.838 119.504 145.111C119.504 145.754 118.957 146.246 118.246 146.246C117.686 146.246 117.357 146.041 117.043 145.453L113.092 138.193H108.375V144.975C108.375 145.74 107.883 146.246 107.145 146.246ZM108.375 136.02H113.092C115.621 136.02 117.057 134.652 117.057 132.232C117.057 129.867 115.525 128.459 112.982 128.459H108.375V136.02ZM126.477 146.246C123.646 146.246 121.746 144.537 121.746 141.98C121.746 139.547 123.619 138.016 126.9 137.824L130.988 137.592V136.402C130.988 134.666 129.84 133.627 127.871 133.627C126.326 133.627 125.273 134.188 124.48 135.596C124.262 135.992 123.947 136.17 123.496 136.17C122.881 136.17 122.443 135.746 122.443 135.104C122.443 134.803 122.539 134.461 122.73 134.119C123.537 132.561 125.615 131.535 127.926 131.535C131.262 131.535 133.367 133.34 133.367 136.17V145.043C133.367 145.754 132.902 146.246 132.246 146.246C131.576 146.246 131.111 145.754 131.111 145.043V143.553H131.057C130.209 145.18 128.391 146.246 126.477 146.246ZM127.01 144.223C129.252 144.223 130.988 142.65 130.988 140.6V139.438L127.174 139.67C125.26 139.793 124.166 140.641 124.166 141.98C124.166 143.334 125.301 144.223 127.01 144.223ZM141.775 146.246C138.152 146.246 135.691 143.348 135.691 138.891C135.691 134.434 138.139 131.535 141.721 131.535C143.758 131.535 145.398 132.533 146.246 134.092H146.301V127.297C146.301 126.545 146.793 126.025 147.49 126.025C148.188 126.025 148.68 126.545 148.68 127.297V145.084C148.68 145.768 148.201 146.246 147.518 146.246C146.848 146.246 146.301 145.781 146.301 145.084V143.457H146.26C145.48 145.152 144.004 146.246 141.775 146.246ZM142.227 144.154C144.674 144.154 146.314 142.076 146.314 138.891C146.314 135.719 144.674 133.627 142.227 133.627C139.711 133.627 138.125 135.678 138.125 138.891C138.125 142.117 139.711 144.154 142.227 144.154ZM153.205 129.389C152.398 129.389 151.729 128.719 151.729 127.912C151.729 127.092 152.398 126.436 153.205 126.436C154.025 126.436 154.695 127.092 154.695 127.912C154.695 128.719 154.025 129.389 153.205 129.389ZM153.205 146.246C152.508 146.246 152.016 145.727 152.016 144.975V132.807C152.016 132.055 152.508 131.535 153.205 131.535C153.902 131.535 154.395 132.055 154.395 132.807V144.975C154.395 145.727 153.902 146.246 153.205 146.246ZM161.75 146.246C158.92 146.246 157.02 144.537 157.02 141.98C157.02 139.547 158.893 138.016 162.174 137.824L166.262 137.592V136.402C166.262 134.666 165.113 133.627 163.145 133.627C161.6 133.627 160.547 134.188 159.754 135.596C159.535 135.992 159.221 136.17 158.77 136.17C158.154 136.17 157.717 135.746 157.717 135.104C157.717 134.803 157.812 134.461 158.004 134.119C158.811 132.561 160.889 131.535 163.199 131.535C166.535 131.535 168.641 133.34 168.641 136.17V145.043C168.641 145.754 168.176 146.246 167.52 146.246C166.85 146.246 166.385 145.754 166.385 145.043V143.553H166.33C165.482 145.18 163.664 146.246 161.75 146.246ZM162.283 144.223C164.525 144.223 166.262 142.65 166.262 140.6V139.438L162.447 139.67C160.533 139.793 159.439 140.641 159.439 141.98C159.439 143.334 160.574 144.223 162.283 144.223ZM172.852 146.246C172.154 146.246 171.662 145.727 171.662 144.975V132.738C171.662 132.027 172.127 131.535 172.783 131.535C173.439 131.535 173.904 132.027 173.904 132.738V134.051H173.959C174.752 132.52 176.27 131.535 178.471 131.535C181.588 131.535 183.393 133.545 183.393 136.771V144.975C183.393 145.727 182.9 146.246 182.203 146.246C181.506 146.246 181.014 145.727 181.014 144.975V137.195C181.014 134.898 179.934 133.641 177.746 133.641C175.504 133.641 174.041 135.227 174.041 137.633V144.975C174.041 145.727 173.549 146.246 172.852 146.246ZM187.193 142.719V133.736H186.004C185.32 133.736 184.938 133.381 184.938 132.752C184.938 132.137 185.32 131.781 186.004 131.781H187.193V129.348C187.193 128.596 187.686 128.076 188.383 128.076C189.08 128.076 189.572 128.596 189.572 129.348V131.781H191.404C192.088 131.781 192.471 132.137 192.471 132.752C192.471 133.381 192.088 133.736 191.404 133.736H189.572V142.199C189.572 143.402 189.996 143.977 191.186 144.059L191.391 144.072C192.17 144.127 192.525 144.441 192.525 145.002C192.525 145.727 192.115 146.109 190.789 146.109H190.639C188.342 146.109 187.193 144.988 187.193 142.719ZM206.484 146.246C202.547 146.246 199.922 143.416 199.922 138.918C199.922 134.447 202.52 131.535 206.457 131.535C209.137 131.535 211.475 133.053 212.021 135.021C212.076 135.199 212.104 135.377 212.104 135.527C212.104 136.156 211.707 136.566 211.092 136.566C210.572 136.566 210.285 136.348 209.957 135.732C209.205 134.324 208.125 133.627 206.484 133.627C204.01 133.627 202.342 135.705 202.342 138.891C202.342 142.158 204.037 144.154 206.484 144.154C208.193 144.154 209.232 143.416 209.971 142.049C210.312 141.406 210.572 141.215 211.092 141.215C211.707 141.215 212.117 141.639 212.117 142.254C212.117 142.432 212.076 142.637 212.008 142.855C211.324 144.824 209.068 146.246 206.484 146.246ZM220.539 146.246C216.602 146.246 213.949 143.416 213.949 138.891C213.949 134.352 216.602 131.535 220.539 131.535C224.463 131.535 227.115 134.352 227.115 138.891C227.115 143.416 224.463 146.246 220.539 146.246ZM220.539 144.154C223.055 144.154 224.695 142.24 224.695 138.891C224.695 135.541 223.055 133.627 220.539 133.627C218.023 133.627 216.369 135.541 216.369 138.891C216.369 142.24 218.023 144.154 220.539 144.154ZM234.908 146.246C231.285 146.246 228.824 143.348 228.824 138.891C228.824 134.434 231.271 131.535 234.854 131.535C236.891 131.535 238.531 132.533 239.379 134.092H239.434V127.297C239.434 126.545 239.926 126.025 240.623 126.025C241.32 126.025 241.812 126.545 241.812 127.297V145.084C241.812 145.768 241.334 146.246 240.65 146.246C239.98 146.246 239.434 145.781 239.434 145.084V143.457H239.393C238.613 145.152 237.137 146.246 234.908 146.246ZM235.359 144.154C237.807 144.154 239.447 142.076 239.447 138.891C239.447 135.719 237.807 133.627 235.359 133.627C232.844 133.627 231.258 135.678 231.258 138.891C231.258 142.117 232.844 144.154 235.359 144.154ZM250.986 146.246C246.789 146.246 244.328 143.539 244.328 138.945C244.328 134.461 246.857 131.535 250.781 131.535C254.418 131.535 256.975 134.256 256.975 138.152C256.975 139.014 256.482 139.533 255.662 139.533H246.775C246.775 142.404 248.348 144.182 250.891 144.182C252.586 144.182 253.625 143.58 254.732 141.967C254.979 141.625 255.252 141.488 255.621 141.488C256.25 141.488 256.674 141.898 256.674 142.527C256.674 142.719 256.605 142.965 256.496 143.225C255.58 145.152 253.584 146.246 250.986 146.246ZM246.789 137.674H254.514C254.459 135.213 252.941 133.6 250.74 133.6C248.525 133.6 246.939 135.227 246.789 137.674ZM266.436 129.389C265.629 129.389 264.959 128.719 264.959 127.912C264.959 127.092 265.629 126.436 266.436 126.436C267.256 126.436 267.926 127.092 267.926 127.912C267.926 128.719 267.256 129.389 266.436 129.389ZM266.436 146.246C265.738 146.246 265.246 145.727 265.246 144.975V132.807C265.246 132.055 265.738 131.535 266.436 131.535C267.133 131.535 267.625 132.055 267.625 132.807V144.975C267.625 145.727 267.133 146.246 266.436 146.246ZM272.027 146.246C271.303 146.246 270.838 145.699 270.838 144.975V132.738C270.838 132.027 271.303 131.535 271.959 131.535C272.615 131.535 273.08 132.027 273.08 132.738V134.051H273.135C273.805 132.547 275.254 131.535 277.168 131.535C279.109 131.535 280.545 132.52 281.16 134.242H281.215C282.008 132.547 283.676 131.535 285.672 131.535C288.488 131.535 290.307 133.367 290.307 136.184V144.975C290.307 145.699 289.842 146.246 289.117 146.246C288.393 146.246 287.928 145.699 287.928 144.975V136.73C287.928 134.789 286.848 133.641 284.975 133.641C283.088 133.641 281.762 135.035 281.762 136.963V144.975C281.762 145.699 281.297 146.246 280.572 146.246C279.848 146.246 279.383 145.699 279.383 144.975V136.471C279.383 134.762 278.234 133.641 276.471 133.641C274.584 133.641 273.217 135.117 273.217 137.086V144.975C273.217 145.699 272.752 146.246 272.027 146.246ZM297.484 146.246C294.654 146.246 292.754 144.537 292.754 141.98C292.754 139.547 294.627 138.016 297.908 137.824L301.996 137.592V136.402C301.996 134.666 300.848 133.627 298.879 133.627C297.334 133.627 296.281 134.188 295.488 135.596C295.27 135.992 294.955 136.17 294.504 136.17C293.889 136.17 293.451 135.746 293.451 135.104C293.451 134.803 293.547 134.461 293.738 134.119C294.545 132.561 296.623 131.535 298.934 131.535C302.27 131.535 304.375 133.34 304.375 136.17V145.043C304.375 145.754 303.91 146.246 303.254 146.246C302.584 146.246 302.119 145.754 302.119 145.043V143.553H302.064C301.217 145.18 299.398 146.246 297.484 146.246ZM298.018 144.223C300.26 144.223 301.996 142.65 301.996 140.6V139.438L298.182 139.67C296.268 139.793 295.174 140.641 295.174 141.98C295.174 143.334 296.309 144.223 298.018 144.223ZM313.139 151.359C310.76 151.332 308.777 150.389 307.779 148.816C307.588 148.516 307.506 148.242 307.506 147.928C307.506 147.326 307.943 146.902 308.572 146.902C308.969 146.902 309.201 147.039 309.57 147.449C310.787 148.789 311.785 149.309 313.234 149.336C315.777 149.377 317.322 147.914 317.322 145.795V143.553H317.268C316.393 145.098 314.697 146.109 312.701 146.109C309.078 146.109 306.699 143.252 306.699 138.836C306.699 134.379 309.078 131.535 312.756 131.535C314.766 131.535 316.338 132.52 317.281 134.119H317.322V132.766C317.322 132.027 317.828 131.535 318.512 131.535C319.195 131.535 319.701 132.027 319.701 132.766V145.713C319.701 149.104 317.186 151.4 313.139 151.359ZM313.18 144.018C315.654 144.018 317.322 141.967 317.322 138.836C317.322 135.705 315.654 133.627 313.18 133.627C310.732 133.627 309.133 135.65 309.133 138.836C309.133 142.021 310.732 144.018 313.18 144.018ZM328.752 146.246C324.555 146.246 322.094 143.539 322.094 138.945C322.094 134.461 324.623 131.535 328.547 131.535C332.184 131.535 334.74 134.256 334.74 138.152C334.74 139.014 334.248 139.533 333.428 139.533H324.541C324.541 142.404 326.113 144.182 328.656 144.182C330.352 144.182 331.391 143.58 332.498 141.967C332.744 141.625 333.018 141.488 333.387 141.488C334.016 141.488 334.439 141.898 334.439 142.527C334.439 142.719 334.371 142.965 334.262 143.225C333.346 145.152 331.35 146.246 328.752 146.246ZM324.555 137.674H332.279C332.225 135.213 330.707 133.6 328.506 133.6C326.291 133.6 324.705 135.227 324.555 137.674ZM342.082 146.246C339.553 146.246 337.57 145.111 336.887 143.334C336.805 143.129 336.777 142.951 336.777 142.773C336.777 142.145 337.242 141.789 337.857 141.789C338.281 141.789 338.623 142.008 338.896 142.5C339.607 143.744 340.455 144.305 342.273 144.305C344.092 144.305 345.322 143.512 345.322 142.186C345.322 141.16 344.734 140.613 343.135 140.217L340.961 139.67C338.213 138.986 336.887 137.688 336.887 135.691C336.887 133.217 339.061 131.535 342.273 131.535C344.611 131.535 346.689 132.848 347.059 134.557C347.086 134.693 347.1 134.803 347.1 134.912C347.1 135.473 346.744 135.842 346.17 135.842C345.705 135.842 345.377 135.691 345.117 135.199C344.502 134.01 343.586 133.49 342.137 133.49C340.428 133.49 339.238 134.352 339.238 135.568C339.238 136.553 340.004 137.236 341.562 137.619L343.682 138.139C346.648 138.863 347.742 139.902 347.742 141.994C347.742 144.537 345.459 146.246 342.082 146.246Z" fill="black"/>
</svg>
